<mxfile host="app.diagrams.net" agent="Mozilla/5.0 (Windows NT 10.0; Win64; x64) AppleWebKit/537.36 (KHTML, like Gecko) Chrome/136.0.0.0 Safari/537.36" version="27.0.1">
  <diagram name="第 1 页" id="ku8Pm8eOQoJnp-52_dLf">
    <mxGraphModel dx="719" dy="391" grid="1" gridSize="10" guides="1" tooltips="1" connect="1" arrows="1" fold="1" page="1" pageScale="1" pageWidth="850" pageHeight="1100" math="0" shadow="0">
      <root>
        <mxCell id="0" />
        <mxCell id="1" parent="0" />
        <mxCell id="M4oquMFeu5735sY5OW-5-6" value="" style="edgeStyle=orthogonalEdgeStyle;rounded=0;orthogonalLoop=1;jettySize=auto;html=1;" edge="1" parent="1" source="M4oquMFeu5735sY5OW-5-1" target="M4oquMFeu5735sY5OW-5-5">
          <mxGeometry relative="1" as="geometry" />
        </mxCell>
        <mxCell id="M4oquMFeu5735sY5OW-5-1" value="开始" style="html=1;dashed=0;whiteSpace=wrap;shape=mxgraph.dfd.start" vertex="1" parent="1">
          <mxGeometry x="80" y="47" width="80" height="30" as="geometry" />
        </mxCell>
        <mxCell id="M4oquMFeu5735sY5OW-5-3" value="结束" style="html=1;dashed=0;whiteSpace=wrap;shape=mxgraph.dfd.start" vertex="1" parent="1">
          <mxGeometry x="80" y="320" width="80" height="30" as="geometry" />
        </mxCell>
        <mxCell id="M4oquMFeu5735sY5OW-5-8" value="" style="edgeStyle=orthogonalEdgeStyle;rounded=0;orthogonalLoop=1;jettySize=auto;html=1;" edge="1" parent="1" source="M4oquMFeu5735sY5OW-5-4" target="M4oquMFeu5735sY5OW-5-3">
          <mxGeometry relative="1" as="geometry" />
        </mxCell>
        <mxCell id="M4oquMFeu5735sY5OW-5-4" value="&lt;font style=&quot;font-size: 8px;&quot;&gt;可选操作：&lt;/font&gt;&lt;div&gt;&lt;font style=&quot;font-size: 8px;&quot;&gt;1、编辑数字人角色名称&lt;/font&gt;&lt;/div&gt;&lt;div&gt;&lt;font style=&quot;font-size: 8px;&quot;&gt;2、配置音色、音量、音调、语速&lt;/font&gt;&lt;/div&gt;" style="shape=process;whiteSpace=wrap;html=1;backgroundOutline=1;align=left;" vertex="1" parent="1">
          <mxGeometry x="60" y="220" width="120" height="60" as="geometry" />
        </mxCell>
        <mxCell id="M4oquMFeu5735sY5OW-5-7" value="" style="edgeStyle=orthogonalEdgeStyle;rounded=0;orthogonalLoop=1;jettySize=auto;html=1;" edge="1" parent="1" source="M4oquMFeu5735sY5OW-5-5" target="M4oquMFeu5735sY5OW-5-4">
          <mxGeometry relative="1" as="geometry" />
        </mxCell>
        <mxCell id="M4oquMFeu5735sY5OW-5-5" value="&lt;font style=&quot;font-size: 8px;&quot;&gt;选择数字人形象&lt;/font&gt;" style="shape=process;whiteSpace=wrap;html=1;backgroundOutline=1;align=center;" vertex="1" parent="1">
          <mxGeometry x="60" y="120" width="120" height="60" as="geometry" />
        </mxCell>
        <mxCell id="M4oquMFeu5735sY5OW-5-10" value="1、创建数字人角色流程" style="swimlane;" vertex="1" parent="1">
          <mxGeometry x="25" y="10" width="190" height="350" as="geometry">
            <mxRectangle x="25" y="10" width="170" height="30" as="alternateBounds" />
          </mxGeometry>
        </mxCell>
      </root>
    </mxGraphModel>
  </diagram>
</mxfile>
